<svg xmlns="http://www.w3.org/2000/svg" width="49" height="55" viewBox="0 0 49 55" fill="none">
  <g filter="url(#filter0_d_1129_7419)">
    <path fill-rule="evenodd" clip-rule="evenodd" d="M23.5588 1.86914C16.0154 6.21101 13.093 7.04598 4.55443 5.54303C2.67746 17.5869 3.85057 42.9887 23.5588 48.2442V1.86914ZM24.9309 1.86914C32.4743 6.21101 35.3967 7.04598 43.9352 5.54303C45.8122 17.5869 44.6391 42.9887 24.9309 48.2442V1.86914Z" fill="url(#paint0_linear_1129_7419)"/>
    <path d="M4.55443 5.54303L4.67645 4.84982L3.9695 4.72538L3.85896 5.43464L4.55443 5.54303ZM23.5588 1.86914H24.2627V0.651874L23.2077 1.25911L23.5588 1.86914ZM23.5588 48.2442L23.3774 48.9243L24.2627 49.1603V48.2442H23.5588ZM43.9352 5.54303L44.6307 5.43464L44.5202 4.72538L43.8132 4.84982L43.9352 5.54303ZM24.9309 1.86914L25.282 1.25911L24.227 0.651874V1.86914H24.9309ZM24.9309 48.2442H24.227V49.1603L25.1122 48.9243L24.9309 48.2442ZM4.43242 6.23623C8.72962 6.99263 11.6996 7.17789 14.5716 6.58733C17.4331 5.9989 20.1351 4.6519 23.9099 2.47917L23.2077 1.25911C19.4391 3.42824 16.9082 4.66966 14.288 5.20845C11.6783 5.7451 8.9178 5.59638 4.67645 4.84982L4.43242 6.23623ZM23.7402 47.5641C14.2069 45.0219 9.11843 37.6145 6.63703 29.2393C4.15205 20.852 4.32279 11.6004 5.2499 5.65141L3.85896 5.43464C2.90911 11.5295 2.72791 21.0008 5.2873 29.6392C7.85027 38.2897 13.2025 46.211 23.3774 48.9243L23.7402 47.5641ZM22.8549 1.86914V48.2442H24.2627V1.86914H22.8549ZM43.8132 4.84982C39.5719 5.59638 36.8114 5.7451 34.2016 5.20845C31.5815 4.66966 29.0506 3.42824 25.282 1.25911L24.5797 2.47917C28.3546 4.6519 31.0565 5.9989 33.9181 6.58733C36.79 7.17789 39.76 6.99263 44.0572 6.23623L43.8132 4.84982ZM25.1122 48.9243C35.2872 46.211 40.6394 38.2897 43.2024 29.6392C45.7617 21.0008 45.5805 11.5295 44.6307 5.43464L43.2397 5.65141C44.1669 11.6004 44.3376 20.852 41.8526 29.2393C39.3712 37.6145 34.2828 45.0219 24.7495 47.5641L25.1122 48.9243ZM24.227 1.86914V48.2442H25.6347V1.86914H24.227Z" fill="url(#paint1_linear_1129_7419)"/>
    <g filter="url(#filter1_i_1129_7419)">
      <path d="M15.2539 22.3712C15.8728 19.8283 18.6753 14.8535 24.9346 15.2974C27.0122 15.3437 31.6448 16.8233 33.5544 22.3712" stroke="#363636" stroke-width="1.30718" stroke-linecap="round" stroke-linejoin="round"/>
      <path d="M28.7218 31.769C31.508 28.3615 33.0405 19.4505 24.9603 18.4019C22.7313 18.2716 18.9418 18.4019 18.1224 23.8742C17.8492 26.1958 18.3955 28.1079 20.3629 28.6192C22.3303 29.1305 24.5423 28.2784 24.5423 24.8185" stroke="#363636" stroke-width="1.30718" stroke-linecap="round" stroke-linejoin="round"/>
      <path d="M21.2623 25.3781C21.0347 24.0579 21.317 21.4448 24.2669 21.5541C27.9543 21.6907 29.32 26.1974 25.9058 30.1579C23.5097 32.9374 20.0332 31.5237 20.0332 31.5237" stroke="#363636" stroke-width="1.30718" stroke-linecap="round"/>
    </g>
    <path fill-rule="evenodd" clip-rule="evenodd" d="M24.3332 0.702762C24.2735 0.692648 24.2101 0.703978 24.1553 0.739427C21.8365 2.23959 18.5243 3.86182 14.9263 4.74426C11.3269 5.62705 7.46476 5.76409 4.02637 4.32536L3.73253 4.20241L3.68232 4.51695C2.67658 10.8177 2.48687 20.6113 5.19222 29.5263C7.89927 38.4469 13.5186 46.5214 24.1468 49.2886C24.1792 49.297 24.2118 49.2987 24.243 49.2945C24.279 49.3017 24.3171 49.301 24.355 49.2912C34.9832 46.524 40.6025 38.4495 43.3096 29.5289C46.0149 20.6139 45.8252 10.8203 44.8195 4.51956L44.7692 4.20502L44.4754 4.32797C41.0369 5.76676 37.2159 5.62889 33.6584 4.74573C30.102 3.86285 26.8307 2.2402 24.511 0.739427C24.4563 0.703978 24.3928 0.692648 24.3332 0.702762ZM24.3331 1.22076C21.9811 2.7286 18.6584 4.34476 15.0457 5.23082C11.4864 6.10376 7.62367 6.27316 4.12849 4.90706C3.17446 11.1629 3.038 20.7022 5.67162 29.3808C8.34612 38.1942 13.8638 46.0865 24.2559 48.7993C34.6415 46.0841 40.1565 38.194 42.8302 29.3834C45.4638 20.7048 45.3273 11.1655 44.3733 4.90971C40.8804 6.27568 37.0577 6.1058 33.5377 5.23196C29.9651 4.34505 26.6832 2.72802 24.3331 1.22076Z" fill="url(#paint2_linear_1129_7419)"/>
  </g>
  <defs>
    <filter id="filter0_d_1129_7419" x="0.394881" y="0.652344" width="47.7122" height="53.9235" filterUnits="userSpaceOnUse" color-interpolation-filters="sRGB">
      <feFlood flood-opacity="0" result="BackgroundImageFix"/>
      <feColorMatrix in="SourceAlpha" type="matrix" values="0 0 0 0 0 0 0 0 0 0 0 0 0 0 0 0 0 0 127 0" result="hardAlpha"/>
      <feOffset dy="2.67192"/>
      <feGaussianBlur stdDeviation="1.30256"/>
      <feComposite in2="hardAlpha" operator="out"/>
      <feColorMatrix type="matrix" values="0 0 0 0 0 0 0 0 0 0 0 0 0 0 0 0 0 0 0.25 0"/>
      <feBlend mode="normal" in2="BackgroundImageFix" result="effect1_dropShadow_1129_7419"/>
      <feBlend mode="normal" in="SourceGraphic" in2="effect1_dropShadow_1129_7419" result="shape"/>
    </filter>
    <filter id="filter1_i_1129_7419" x="14.5996" y="14.6152" width="19.6094" height="18.4194" filterUnits="userSpaceOnUse" color-interpolation-filters="sRGB">
      <feFlood flood-opacity="0" result="BackgroundImageFix"/>
      <feBlend mode="normal" in="SourceGraphic" in2="BackgroundImageFix" result="shape"/>
      <feColorMatrix in="SourceAlpha" type="matrix" values="0 0 0 0 0 0 0 0 0 0 0 0 0 0 0 0 0 0 127 0" result="hardAlpha"/>
      <feOffset dy="0.829149"/>
      <feGaussianBlur stdDeviation="0.248745"/>
      <feComposite in2="hardAlpha" operator="arithmetic" k2="-1" k3="1"/>
      <feColorMatrix type="matrix" values="0 0 0 0 0 0 0 0 0 0 0 0 0 0 0 0 0 0 0.25 0"/>
      <feBlend mode="normal" in2="shape" result="effect1_innerShadow_1129_7419"/>
    </filter>
    <linearGradient id="paint0_linear_1129_7419" x1="34.9189" y1="1.86914" x2="34.9189" y2="48.2442" gradientUnits="userSpaceOnUse">
      <stop stop-color="#8000FF"/>
      <stop offset="1" stop-color="#00FF94"/>
    </linearGradient>
    <linearGradient id="paint1_linear_1129_7419" x1="34.9189" y1="1.86914" x2="34.9189" y2="48.2442" gradientUnits="userSpaceOnUse">
      <stop stop-color="#8000FF"/>
      <stop offset="1" stop-color="#00FF94"/>
    </linearGradient>
    <linearGradient id="paint2_linear_1129_7419" x1="20.3005" y1="1.58134" x2="20.3005" y2="52.2901" gradientUnits="userSpaceOnUse">
      <stop stop-color="#02FB96"/>
      <stop offset="1" stop-color="#7810F8"/>
    </linearGradient>
  </defs>
</svg>